<?xml version="1.0" encoding="UTF-8"?>
<svg width="453px" height="489px" viewBox="0 0 453 489" version="1.1" xmlns="http://www.w3.org/2000/svg" xmlns:xlink="http://www.w3.org/1999/xlink">
    <!-- Generator: Sketch 61 (89581) - https://sketch.com -->
    <title>icon</title>
    <desc>Created with Sketch.</desc>
    <g id="Page-1" stroke="none" stroke-width="1" fill="none" fill-rule="evenodd">
        <g id="icon" fill-rule="nonzero">
            <g id="Group">
                <polygon id="Path" fill="#4A4A4A" transform="translate(334.787729, 444.154463) scale(-1, 1) rotate(18.000000) translate(-334.787729, -444.154463) " points="236.719729 522.610463 236.719729 365.698463 432.855729 365.698463"></polygon>
                <circle id="Oval" fill="#5C5C5C" cx="222.002" cy="221.94" r="221.936"></circle>
            </g>
            <g id="Group" opacity="0.25" fill="#FFFFFF">
                <path d="M65.074,378.868 C-21.598,292.204 -21.598,151.676 65.074,65.004 C151.746,-21.668 292.266,-21.668 378.938,65.004 L65.074,378.868 Z" id="Path"></path>
            </g>
            <path d="M255.562,112.876 C231.602,121.62 216.434,144.156 218.17,168.836 L218.746,178.356 L209.154,177.204 C174.25,172.732 143.754,157.596 117.866,132.124 L105.194,119.484 L101.938,128.804 C95.042,149.588 99.45,171.548 113.826,186.308 C121.49,194.476 119.762,195.628 106.546,190.78 C101.946,189.236 97.914,188.06 97.53,188.644 C96.202,190.012 100.786,207.676 104.426,214.692 C109.418,224.42 119.57,233.916 130.698,239.564 L140.098,244.036 L128.986,244.228 C118.258,244.228 117.874,244.42 119.026,248.508 C122.858,261.148 138.002,274.556 154.898,280.372 L166.786,284.436 L156.442,290.66 C141.106,299.62 123.074,304.644 105.05,305.028 C96.402,305.22 89.314,305.988 89.314,306.588 C89.314,308.516 112.722,319.396 126.322,323.676 C167.162,336.316 215.706,330.86 252.13,309.308 C278.018,293.956 303.914,263.46 315.986,233.908 C322.514,218.188 329.026,189.428 329.026,175.636 C329.026,166.7 329.602,165.524 340.33,154.852 C346.666,148.628 352.602,141.828 353.754,139.9 C355.682,136.204 355.466,136.204 345.698,139.516 C329.402,145.356 327.09,144.564 335.162,135.836 C341.098,129.612 348.202,118.348 348.202,115.052 C348.202,114.476 345.33,115.436 342.058,117.188 C338.61,119.132 330.946,122.044 325.186,123.796 L314.842,127.108 L305.442,120.692 C300.258,117.204 292.978,113.316 289.146,112.14 C279.33,109.388 264.386,109.772 255.562,112.876 Z" id="Path" fill="#FFFFFF"></path>
        </g>
    </g>
</svg>